# xmcd
#
# Track frame offsets:
#	150
#	16060
#	38469
#	57799
#	84159
#	107858
#	133944
#	151009
#	173029
#	190999
#	207213
#	224293
#
# Disc length: 3204 seconds
#
# Revision: 1
# Processed by: cddbd v1.4PL0 Copyright (c) Steve Scherf et al.
# Submitted via: audiograbber 1.80.04
#
DISCID=920c820c
DTITLE=Concrete Cowboys - A Step into the Dark
DYEAR=1999
DGENRE=Country
TTITLE0=Two step all over you heart
TTITLE1=A step into the dark
TTITLE2=Ordinary man
TTITLE3=Adirondack summer
TTITLE4=Helplessly in love
TTITLE5=Time heals the heart
TTITLE6=You don't look like no cowgirl
TTITLE7=I just can't leave it all behind
TTITLE8=Words
TTITLE9=A soon as I'm finished (Going out of my mind)
TTITLE10=Look at me (Working man blues)
TTITLE11=Sidewinder
EXTD=
EXTT0=
EXTT1=
EXTT2=
EXTT3=
EXTT4=
EXTT5=
EXTT6=
EXTT7=
EXTT8=
EXTT9=
EXTT10=
EXTT11=
PLAYORDER=
